# This file uses centimeters as units for non-parametric coordinates.

mtllib cornellCyl.mtl
g default
v -2.993576 0.196152 2.287747
v -1.676569 0.196152 0.261004
v -2.993576 6.829408 2.287747
v -1.676569 6.829408 0.261004
v -5.020319 6.829408 0.970739
v -3.703311 6.829408 -1.056003
v -5.020319 0.196152 0.970739
v -3.703311 0.196152 -1.056003
vt 0.375000 0.000000
vt 0.625000 0.000000
vt 0.375000 0.250000
vt 0.625000 0.250000
vt 0.375000 0.500000
vt 0.625000 0.500000
vt 0.375000 0.750000
vt 0.625000 0.750000
vt 0.375000 1.000000
vt 0.625000 1.000000
vt 0.875000 0.000000
vt 0.875000 0.250000
vt 0.125000 0.000000
vt 0.125000 0.250000
vn 0.838515 0.000000 0.544879
vn 0.838515 0.000000 0.544879
vn 0.838515 0.000000 0.544879
vn 0.838515 0.000000 0.544879
vn 0.838515 0.000000 0.544879
vn 0.838515 0.000000 0.544879
vn 0.000000 1.000000 0.000000
vn 0.000000 1.000000 0.000000
vn 0.000000 1.000000 0.000000
vn 0.000000 1.000000 0.000000
vn 0.000000 1.000000 0.000000
vn 0.000000 1.000000 0.000000
vn -0.838515 0.000000 -0.544879
vn -0.838515 0.000000 -0.544879
vn -0.838515 0.000000 -0.544879
vn -0.838515 0.000000 -0.544879
vn -0.838515 0.000000 -0.544879
vn -0.838515 0.000000 -0.544879
vn 0.000000 -1.000000 0.000000
vn 0.000000 -1.000000 0.000000
vn 0.000000 -1.000000 0.000000
vn 0.000000 -1.000000 0.000000
vn 0.000000 -1.000000 0.000000
vn 0.000000 -1.000000 0.000000
vn 0.544879 0.000000 -0.838515
vn 0.544879 0.000000 -0.838515
vn 0.544879 0.000000 -0.838515
vn 0.544879 0.000000 -0.838515
vn 0.544879 0.000000 -0.838515
vn 0.544879 0.000000 -0.838515
vn -0.544879 0.000000 0.838515
vn -0.544879 0.000000 0.838515
vn -0.544879 0.000000 0.838515
vn -0.544879 0.000000 0.838515
vn -0.544879 0.000000 0.838515
vn -0.544879 0.000000 0.838515
s off
g pCube2
usemtl initialShadingGroup
f 1/1/1 2/2/2 3/3/3
f 3/3/4 2/2/5 4/4/6
f 3/3/7 4/4/8 5/5/9
f 5/5/10 4/4/11 6/6/12
f 5/5/13 6/6/14 7/7/15
f 7/7/16 6/6/17 8/8/18
f 7/7/19 8/8/20 1/9/21
f 1/9/22 8/8/23 2/10/24
f 2/2/25 8/11/26 4/4/27
f 4/4/28 8/11/29 6/12/30
f 7/13/31 1/1/32 5/14/33
f 5/14/34 1/1/35 3/3/36
g default
v -3.047853 0.189542 -2.684450
v -1.633663 0.189542 -0.648125
v -3.047853 2.836051 -2.684450
v -1.633663 2.836051 -0.648125
v -1.011528 2.836051 -4.098639
v 0.402662 2.836051 -2.062315
v -1.011528 0.189542 -4.098639
v 0.402662 0.189542 -2.062315
vt 0.375000 0.000000
vt 0.625000 0.000000
vt 0.375000 0.250000
vt 0.625000 0.250000
vt 0.375000 0.500000
vt 0.625000 0.500000
vt 0.375000 0.750000
vt 0.625000 0.750000
vt 0.375000 1.000000
vt 0.625000 1.000000
vt 0.875000 0.000000
vt 0.875000 0.250000
vt 0.125000 0.000000
vt 0.125000 0.250000
vn -0.821356 0.000000 0.570416
vn -0.821356 0.000000 0.570416
vn -0.821356 0.000000 0.570416
vn -0.821356 0.000000 0.570416
vn 0.000000 1.000000 0.000000
vn 0.000000 1.000000 0.000000
vn 0.000000 1.000000 0.000000
vn 0.000000 1.000000 0.000000
vn 0.821356 0.000000 -0.570416
vn 0.821356 0.000000 -0.570416
vn 0.821356 0.000000 -0.570416
vn 0.821356 0.000000 -0.570416
vn 0.000000 -1.000000 0.000000
vn 0.000000 -1.000000 0.000000
vn 0.000000 -1.000000 0.000000
vn 0.000000 -1.000000 0.000000
vn 0.570416 0.000000 0.821356
vn 0.570416 0.000000 0.821356
vn 0.570416 0.000000 0.821356
vn 0.570416 0.000000 0.821356
vn -0.570416 0.000000 -0.821356
vn -0.570416 0.000000 -0.821356
vn -0.570416 0.000000 -0.821356
vn -0.570416 0.000000 -0.821356
s 1
g pCube3
usemtl initialShadingGroup
f 9/15/37 10/16/38 11/17/39
f 11/17/39 10/16/38 12/18/40
s 2
f 11/17/41 12/18/42 13/19/43
f 13/19/43 12/18/42 14/20/44
s 3
f 13/19/45 14/20/46 15/21/47
f 15/21/47 14/20/46 16/22/48
s 4
f 15/21/49 16/22/50 9/23/51
f 9/23/51 16/22/50 10/24/52
s 5
f 10/16/53 16/25/54 12/18/55
f 12/18/55 16/25/54 14/26/56
s 6
f 15/27/57 9/15/58 13/28/59
f 13/28/59 9/15/58 11/17/60
g default
v 2.676594 10.740881 2.676594
v -2.676594 10.740881 2.676594
v 2.676594 10.740881 -2.676594
v -2.676594 10.740881 -2.676594
vt 0.000000 0.000000
vt 1.000000 0.000000
vt 0.000000 1.000000
vt 1.000000 1.000000
vn -0.000000 -1.000000 0.000000
vn -0.000000 -1.000000 0.000000
vn -0.000000 -1.000000 0.000000
vn -0.000000 -1.000000 0.000000
s 1
g pPlane1
usemtl lambert4SG
f 17/29/61 18/30/62 19/31/63
f 19/31/63 18/30/62 20/32/64
g default
v 0.951057 0.157475 2.314824
v 0.809018 0.157475 2.036056
v 0.587786 0.157475 1.814824
v 0.309017 0.157475 1.672785
v 0.000000 0.157475 1.623841
v -0.309017 0.157475 1.672785
v -0.587785 0.157475 1.814824
v -0.809017 0.157475 2.036056
v -0.951057 0.157475 2.314825
v -1.000000 0.157475 2.623842
v -0.951057 0.157475 2.932859
v -0.809017 0.157475 3.211627
v -0.587785 0.157475 3.432859
v -0.309017 0.157475 3.574898
v -0.000000 0.157475 3.623842
v 0.309017 0.157475 3.574898
v 0.587785 0.157475 3.432859
v 0.809017 0.157475 3.211627
v 0.951057 0.157475 2.932859
v 1.000000 0.157475 2.623842
v 0.951057 2.157475 2.314824
v 0.809018 2.157475 2.036056
v 0.587786 2.157475 1.814824
v 0.309017 2.157475 1.672785
v 0.000000 2.157475 1.623841
v -0.309017 2.157475 1.672785
v -0.587785 2.157475 1.814824
v -0.809017 2.157475 2.036056
v -0.951057 2.157475 2.314825
v -1.000000 2.157475 2.623842
v -0.951057 2.157475 2.932859
v -0.809017 2.157475 3.211627
v -0.587785 2.157475 3.432859
v -0.309017 2.157475 3.574898
v -0.000000 2.157475 3.623842
v 0.309017 2.157475 3.574898
v 0.587785 2.157475 3.432859
v 0.809017 2.157475 3.211627
v 0.951057 2.157475 2.932859
v 1.000000 2.157475 2.623842
v 0.000000 0.157475 2.623842
v 0.000000 2.157475 2.623842
vt 0.648603 0.107966
vt 0.626409 0.064408
vt 0.591842 0.029841
vt 0.548284 0.007647
vt 0.500000 -0.000000
vt 0.451716 0.007647
vt 0.408159 0.029841
vt 0.373591 0.064409
vt 0.351397 0.107966
vt 0.343750 0.156250
vt 0.351397 0.204534
vt 0.373591 0.248091
vt 0.408159 0.282659
vt 0.451716 0.304853
vt 0.500000 0.312500
vt 0.548284 0.304853
vt 0.591841 0.282659
vt 0.626409 0.248091
vt 0.648603 0.204534
vt 0.656250 0.156250
vt 0.375000 0.312500
vt 0.387500 0.312500
vt 0.400000 0.312500
vt 0.412500 0.312500
vt 0.425000 0.312500
vt 0.437500 0.312500
vt 0.450000 0.312500
vt 0.462500 0.312500
vt 0.475000 0.312500
vt 0.487500 0.312500
vt 0.500000 0.312500
vt 0.512500 0.312500
vt 0.525000 0.312500
vt 0.537500 0.312500
vt 0.550000 0.312500
vt 0.562500 0.312500
vt 0.575000 0.312500
vt 0.587500 0.312500
vt 0.600000 0.312500
vt 0.612500 0.312500
vt 0.625000 0.312500
vt 0.375000 0.688440
vt 0.387500 0.688440
vt 0.400000 0.688440
vt 0.412500 0.688440
vt 0.425000 0.688440
vt 0.437500 0.688440
vt 0.450000 0.688440
vt 0.462500 0.688440
vt 0.475000 0.688440
vt 0.487500 0.688440
vt 0.500000 0.688440
vt 0.512500 0.688440
vt 0.525000 0.688440
vt 0.537500 0.688440
vt 0.550000 0.688440
vt 0.562500 0.688440
vt 0.575000 0.688440
vt 0.587500 0.688440
vt 0.600000 0.688440
vt 0.612500 0.688440
vt 0.625000 0.688440
vt 0.648603 0.795466
vt 0.626409 0.751908
vt 0.591842 0.717341
vt 0.548284 0.695147
vt 0.500000 0.687500
vt 0.451716 0.695147
vt 0.408159 0.717341
vt 0.373591 0.751909
vt 0.351397 0.795466
vt 0.343750 0.843750
vt 0.351397 0.892034
vt 0.373591 0.935591
vt 0.408159 0.970159
vt 0.451716 0.992353
vt 0.500000 1.000000
vt 0.548284 0.992353
vt 0.591841 0.970159
vt 0.626409 0.935591
vt 0.648603 0.892034
vt 0.656250 0.843750
vt 0.500000 0.150000
vt 0.500000 0.837500
vn 0.951057 0.000000 -0.309016
vn 0.809017 0.000000 -0.587785
vn 0.951057 0.000000 -0.309016
vn 0.809017 0.000000 -0.587785
vn 0.587785 0.000000 -0.809017
vn 0.587785 0.000000 -0.809017
vn 0.309017 0.000000 -0.951057
vn 0.309017 0.000000 -0.951057
vn -0.000000 0.000000 -1.000000
vn -0.000000 0.000000 -1.000000
vn -0.309017 0.000000 -0.951056
vn -0.309017 0.000000 -0.951056
vn -0.587785 0.000000 -0.809017
vn -0.587785 0.000000 -0.809017
vn -0.809017 0.000000 -0.587785
vn -0.809017 0.000000 -0.587785
vn -0.951057 0.000000 -0.309017
vn -0.951057 0.000000 -0.309017
vn -1.000000 0.000000 -0.000000
vn -1.000000 0.000000 0.000000
vn -0.951057 0.000000 0.309017
vn -0.951056 0.000000 0.309017
vn -0.809017 0.000000 0.587785
vn -0.809017 0.000000 0.587785
vn -0.587785 0.000000 0.809017
vn -0.587785 0.000000 0.809017
vn -0.309017 0.000000 0.951057
vn -0.309017 0.000000 0.951057
vn 0.000000 0.000000 1.000000
vn 0.000000 0.000000 1.000000
vn 0.309017 0.000000 0.951057
vn 0.309017 0.000000 0.951057
vn 0.587785 0.000000 0.809017
vn 0.587785 0.000000 0.809017
vn 0.809017 0.000000 0.587785
vn 0.809017 0.000000 0.587785
vn 0.951057 0.000000 0.309017
vn 0.951057 0.000000 0.309017
vn 1.000000 0.000000 0.000001
vn 1.000000 0.000000 0.000001
vn 0.000000 -1.000000 0.000000
vn 0.000000 -1.000000 0.000000
vn 0.000000 -1.000000 0.000000
vn 0.000000 -1.000000 0.000000
vn 0.000000 -1.000000 0.000000
vn 0.000000 -1.000000 0.000000
vn 0.000000 -1.000000 0.000000
vn 0.000000 -1.000000 0.000000
vn 0.000000 -1.000000 0.000000
vn 0.000000 -1.000000 0.000000
vn 0.000000 -1.000000 0.000000
vn 0.000000 -1.000000 0.000000
vn 0.000000 -1.000000 0.000000
vn 0.000000 -1.000000 0.000000
vn 0.000000 -1.000000 0.000000
vn 0.000000 -1.000000 0.000000
vn 0.000000 -1.000000 0.000000
vn 0.000000 -1.000000 0.000000
vn 0.000000 -1.000000 0.000000
vn 0.000000 -1.000000 0.000000
vn 0.000000 -1.000000 0.000000
vn 0.000000 1.000000 0.000000
vn 0.000000 1.000000 0.000000
vn 0.000000 1.000000 0.000000
vn 0.000000 1.000000 0.000000
vn 0.000000 1.000000 0.000000
vn 0.000000 1.000000 0.000000
vn 0.000000 1.000000 0.000000
vn 0.000000 1.000000 0.000000
vn 0.000000 1.000000 0.000000
vn 0.000000 1.000000 0.000000
vn 0.000000 1.000000 0.000000
vn 0.000000 1.000000 0.000000
vn 0.000000 1.000000 0.000000
vn 0.000000 1.000000 0.000000
vn 0.000000 1.000000 0.000000
vn 0.000000 1.000000 0.000000
vn 0.000000 1.000000 0.000000
vn 0.000000 1.000000 0.000000
vn 0.000000 1.000000 0.000000
vn 0.000000 1.000000 0.000000
vn 0.000000 1.000000 0.000000
s 1
g pCylinder1
usemtl initialShadingGroup
f 21/53/65 22/54/66 41/74/67
f 41/74/67 22/54/66 42/75/68
f 22/54/66 23/55/69 42/75/68
f 42/75/68 23/55/69 43/76/70
f 23/55/69 24/56/71 43/76/70
f 43/76/70 24/56/71 44/77/72
f 24/56/71 25/57/73 44/77/72
f 44/77/72 25/57/73 45/78/74
f 25/57/73 26/58/75 45/78/74
f 45/78/74 26/58/75 46/79/76
f 26/58/75 27/59/77 46/79/76
f 46/79/76 27/59/77 47/80/78
f 27/59/77 28/60/79 47/80/78
f 47/80/78 28/60/79 48/81/80
f 28/60/79 29/61/81 48/81/80
f 48/81/80 29/61/81 49/82/82
f 29/61/81 30/62/83 49/82/82
f 49/82/82 30/62/83 50/83/84
f 30/62/83 31/63/85 50/83/84
f 50/83/84 31/63/85 51/84/86
f 31/63/85 32/64/87 51/84/86
f 51/84/86 32/64/87 52/85/88
f 32/64/87 33/65/89 52/85/88
f 52/85/88 33/65/89 53/86/90
f 33/65/89 34/66/91 53/86/90
f 53/86/90 34/66/91 54/87/92
f 34/66/91 35/67/93 54/87/92
f 54/87/92 35/67/93 55/88/94
f 35/67/93 36/68/95 55/88/94
f 55/88/94 36/68/95 56/89/96
f 36/68/95 37/69/97 56/89/96
f 56/89/96 37/69/97 57/90/98
f 37/69/97 38/70/99 57/90/98
f 57/90/98 38/70/99 58/91/100
f 38/70/99 39/71/101 58/91/100
f 58/91/100 39/71/101 59/92/102
f 39/71/101 40/72/103 59/92/102
f 59/92/102 40/72/103 60/93/104
f 40/72/103 21/73/65 60/93/104
f 60/93/104 21/73/65 41/94/67
s 2
f 22/34/105 21/33/106 61/115/107
f 23/35/108 22/34/105 61/115/107
f 24/36/109 23/35/108 61/115/107
f 25/37/110 24/36/109 61/115/107
f 26/38/111 25/37/110 61/115/107
f 27/39/112 26/38/111 61/115/107
f 28/40/113 27/39/112 61/115/107
f 29/41/114 28/40/113 61/115/107
f 30/42/115 29/41/114 61/115/107
f 31/43/116 30/42/115 61/115/107
f 32/44/117 31/43/116 61/115/107
f 33/45/118 32/44/117 61/115/107
f 34/46/119 33/45/118 61/115/107
f 35/47/120 34/46/119 61/115/107
f 36/48/121 35/47/120 61/115/107
f 37/49/122 36/48/121 61/115/107
f 38/50/123 37/49/122 61/115/107
f 39/51/124 38/50/123 61/115/107
f 40/52/125 39/51/124 61/115/107
f 21/33/106 40/52/125 61/115/107
s 3
f 41/113/126 42/112/127 62/116/128
f 42/112/127 43/111/129 62/116/128
f 43/111/129 44/110/130 62/116/128
f 44/110/130 45/109/131 62/116/128
f 45/109/131 46/108/132 62/116/128
f 46/108/132 47/107/133 62/116/128
f 47/107/133 48/106/134 62/116/128
f 48/106/134 49/105/135 62/116/128
f 49/105/135 50/104/136 62/116/128
f 50/104/136 51/103/137 62/116/128
f 51/103/137 52/102/138 62/116/128
f 52/102/138 53/101/139 62/116/128
f 53/101/139 54/100/140 62/116/128
f 54/100/140 55/99/141 62/116/128
f 55/99/141 56/98/142 62/116/128
f 56/98/142 57/97/143 62/116/128
f 57/97/143 58/96/144 62/116/128
f 58/96/144 59/95/145 62/116/128
f 59/95/145 60/114/146 62/116/128
f 60/114/146 41/113/126 62/116/128
g default
v -5.336258 10.816383 -5.336258
v -5.336258 0.143866 -5.336258
v 5.336258 0.143866 -5.336258
v 5.336258 10.816383 -5.336258
vt 0.375000 0.500000
vt 0.375000 0.750000
vt 0.625000 0.750000
vt 0.625000 0.500000
vn 0.000000 0.000000 1.000000
vn 0.000000 0.000000 1.000000
vn 0.000000 0.000000 1.000000
vn 0.000000 0.000000 1.000000
s 1
g polySurface2 pCube1
usemtl lambert3SG
f 63/117/147 64/118/148 66/120/149
f 66/120/149 64/118/148 65/119/150
g default
v -5.336258 0.143866 5.336258
v -5.336258 10.816383 5.336258
v 5.336258 10.816383 5.336258
v 5.336258 0.143866 5.336258
vt 0.375000 0.000000
vt 0.375000 0.250000
vt 0.625000 0.250000
vt 0.625000 0.000000
vn 0.000000 0.000000 -1.000000
vn 0.000000 0.000000 -1.000000
vn 0.000000 0.000000 -1.000000
vn 0.000000 0.000000 -1.000000
s 1
g pCube1 polySurface3 polySurface1
usemtl lambert2SG
f 67/121/151 68/122/152 70/124/153
f 70/124/153 68/122/152 69/123/154
g default
v -5.336258 0.143866 5.336258
v 5.336258 0.143866 5.336258
v -5.336258 10.816383 5.336258
v 5.336258 10.816383 5.336258
v -5.336258 10.816383 -5.336258
v 5.336258 10.816383 -5.336258
v -5.336258 0.143866 -5.336258
v 5.336258 0.143866 -5.336258
vt 0.375000 0.250000
vt 0.375000 0.500000
vt 0.625000 0.500000
vt 0.625000 0.250000
vt 0.375000 0.750000
vt 0.375000 1.000000
vt 0.625000 1.000000
vt 0.625000 0.750000
vt 0.125000 0.000000
vt 0.125000 0.250000
vt 0.375000 0.000000
vn 0.000000 -1.000000 0.000000
vn 0.000000 -1.000000 0.000000
vn 0.000000 -1.000000 0.000000
vn 0.000000 -1.000000 0.000000
vn 0.000000 1.000000 0.000000
vn 0.000000 1.000000 0.000000
vn 0.000000 1.000000 0.000000
vn 0.000000 1.000000 0.000000
vn 1.000000 0.000000 0.000000
vn 1.000000 0.000000 0.000000
vn 1.000000 0.000000 0.000000
vn 1.000000 0.000000 0.000000
s 1
g pCube1 polySurface1 polySurface4
usemtl initialShadingGroup
f 73/125/155 75/126/156 74/128/157
f 74/128/157 75/126/156 76/127/158
s 2
f 77/129/159 71/130/160 78/132/161
f 78/132/161 71/130/160 72/131/162
s 3
f 77/133/163 75/134/164 71/135/165
f 71/135/165 75/134/164 73/125/166
