# This file uses centimeters as units for non-parametric coordinates.

mtllib test.mtl
g default
v -1.143242 -0.118856 -1.980154
v -1.143243 -0.118856 1.980154
v 2.286485 -0.118856 0.000000
v 0.000000 4.454114 0.000000
vt 0.375000 0.033494
vt 0.375000 0.466506
vt 0.750000 0.250000
vt 0.250000 0.500000
vt 0.416667 0.500000
vt 0.583333 0.500000
vt 0.750000 0.500000
vt 0.500000 1.000000
vn 0.000000 -1.000000 0.000000
vn 0.000000 -1.000000 0.000000
vn 0.000000 -1.000000 0.000000
vn -0.970143 0.242536 -0.000000
vn -0.970143 0.242536 -0.000000
vn -0.970143 0.242536 -0.000000
vn 0.485071 0.242536 0.840168
vn 0.485071 0.242536 0.840168
vn 0.485071 0.242536 0.840168
vn 0.485071 0.242536 -0.840168
vn 0.485071 0.242536 -0.840168
vn 0.485071 0.242536 -0.840168
s off
g pCone1
usemtl lambert2SG
f 1/1/1 3/3/2 2/2/3
f 1/4/4 2/5/5 4/8/6
f 2/5/7 3/6/8 4/8/9
f 3/6/10 1/7/11 4/8/12
g default
v -1.814070 6.961420 -1.813367
v 1.814070 6.961420 -1.813367
v -1.814070 7.062375 1.813367
v 1.814070 7.062375 1.813367
vt 0.000000 0.000000
vt 1.000000 0.000000
vt 0.000000 1.000000
vt 1.000000 1.000000
vn 0.000000 -0.999613 0.027826
vn 0.000000 -0.999613 0.027826
vn 0.000000 -0.999613 0.027826
vn 0.000000 -0.999613 0.027826
s 1
g pPlane1
usemtl lambert3SG
f 5/9/13 6/10/14 7/11/15
f 7/11/15 6/10/14 8/12/16
g default
v -7.126179 3.040065 5.999328
v -3.978624 3.040065 7.730233
v -7.126179 6.632159 5.999328
v -3.978624 6.632159 7.730233
v -5.395274 6.632159 2.851773
v -2.247718 6.632159 4.582678
v -5.395274 3.040065 2.851773
v -2.247718 3.040065 4.582678
vt 0.375000 0.000000
vt 0.625000 0.000000
vt 0.375000 0.250000
vt 0.625000 0.250000
vt 0.375000 0.500000
vt 0.625000 0.500000
vt 0.375000 0.750000
vt 0.625000 0.750000
vt 0.375000 1.000000
vt 0.625000 1.000000
vt 0.875000 0.000000
vt 0.875000 0.250000
vt 0.125000 0.000000
vt 0.125000 0.250000
vn -0.481865 0.000000 0.876245
vn -0.481865 0.000000 0.876245
vn -0.481865 0.000000 0.876245
vn -0.481865 0.000000 0.876245
vn 0.000000 1.000000 0.000000
vn 0.000000 1.000000 0.000000
vn 0.000000 1.000000 0.000000
vn 0.000000 1.000000 0.000000
vn 0.481865 0.000000 -0.876245
vn 0.481865 0.000000 -0.876245
vn 0.481865 0.000000 -0.876245
vn 0.481865 0.000000 -0.876245
vn 0.000000 -1.000000 0.000000
vn 0.000000 -1.000000 0.000000
vn 0.000000 -1.000000 0.000000
vn 0.000000 -1.000000 0.000000
vn 0.876245 0.000000 0.481865
vn 0.876245 0.000000 0.481865
vn 0.876245 0.000000 0.481865
vn 0.876245 0.000000 0.481865
vn -0.876245 0.000000 -0.481865
vn -0.876245 0.000000 -0.481865
vn -0.876245 0.000000 -0.481865
vn -0.876245 0.000000 -0.481865
s 1
g pCube1
usemtl lambert4SG
f 9/13/17 10/14/18 11/15/19
f 11/15/19 10/14/18 12/16/20
s 2
f 11/15/21 12/16/22 13/17/23
f 13/17/23 12/16/22 14/18/24
s 3
f 13/17/25 14/18/26 15/19/27
f 15/19/27 14/18/26 16/20/28
s 4
f 15/19/29 16/20/30 9/21/31
f 9/21/31 16/20/30 10/22/32
s 5
f 10/14/33 16/23/34 12/16/35
f 12/16/35 16/23/34 14/24/36
s 6
f 15/25/37 9/13/38 13/26/39
f 13/26/39 9/13/38 11/15/40
